<svg xmlns="http://www.w3.org/2000/svg" xmlns:xlink="http://www.w3.org/1999/xlink" width="1260" zoomAndPan="magnify" viewBox="0 0 944.88 149.999998" height="200" preserveAspectRatio="xMidYMid meet" version="1.0"><defs><g/><clipPath id="a4d4c110d9"><path d="M 0 0.0078125 L 944.761719 0.0078125 L 944.761719 149.988281 L 0 149.988281 Z M 0 0.0078125 " clip-rule="nonzero"/></clipPath><clipPath id="23eca8a928"><path d="M 206 54 L 260 54 L 260 99 L 206 99 Z M 206 54 " clip-rule="nonzero"/></clipPath><clipPath id="f3a0f0a831"><path d="M 196.578125 80.890625 L 247.410156 42.433594 L 267.320312 68.746094 L 216.484375 107.203125 Z M 196.578125 80.890625 " clip-rule="nonzero"/></clipPath><clipPath id="0115e1c92e"><path d="M 196.578125 80.890625 L 247.410156 42.433594 L 267.320312 68.746094 L 216.484375 107.203125 Z M 196.578125 80.890625 " clip-rule="nonzero"/></clipPath><clipPath id="7b181b036b"><path d="M 204 51 L 257 51 L 257 95 L 204 95 Z M 204 51 " clip-rule="nonzero"/></clipPath><clipPath id="68b321e92d"><path d="M 196.578125 80.890625 L 247.410156 42.433594 L 267.320312 68.746094 L 216.484375 107.203125 Z M 196.578125 80.890625 " clip-rule="nonzero"/></clipPath><clipPath id="ab149ccaff"><path d="M 196.578125 80.890625 L 247.410156 42.433594 L 267.320312 68.746094 L 216.484375 107.203125 Z M 196.578125 80.890625 " clip-rule="nonzero"/></clipPath><clipPath id="1aced2c286"><path d="M 208 54 L 254 54 L 254 91 L 208 91 Z M 208 54 " clip-rule="nonzero"/></clipPath><clipPath id="ddb6c3c23b"><path d="M 196.578125 80.890625 L 247.410156 42.433594 L 267.320312 68.746094 L 216.484375 107.203125 Z M 196.578125 80.890625 " clip-rule="nonzero"/></clipPath><clipPath id="87351ec182"><path d="M 196.578125 80.890625 L 247.410156 42.433594 L 267.320312 68.746094 L 216.484375 107.203125 Z M 196.578125 80.890625 " clip-rule="nonzero"/></clipPath><clipPath id="a0ed23266c"><path d="M 203 50 L 257 50 L 257 95 L 203 95 Z M 203 50 " clip-rule="nonzero"/></clipPath><clipPath id="e7b8be24ec"><path d="M 196.578125 80.890625 L 247.410156 42.433594 L 267.320312 68.746094 L 216.484375 107.203125 Z M 196.578125 80.890625 " clip-rule="nonzero"/></clipPath><clipPath id="091bf1bc1d"><path d="M 196.578125 80.890625 L 247.410156 42.433594 L 267.320312 68.746094 L 216.484375 107.203125 Z M 196.578125 80.890625 " clip-rule="nonzero"/></clipPath><clipPath id="bf7fbb48fe"><path d="M 207 53 L 254 53 L 254 92 L 207 92 Z M 207 53 " clip-rule="nonzero"/></clipPath><clipPath id="cf2aedabc4"><path d="M 196.578125 80.890625 L 247.410156 42.433594 L 267.320312 68.746094 L 216.484375 107.203125 Z M 196.578125 80.890625 " clip-rule="nonzero"/></clipPath><clipPath id="9c61704e4d"><path d="M 196.578125 80.890625 L 247.410156 42.433594 L 267.320312 68.746094 L 216.484375 107.203125 Z M 196.578125 80.890625 " clip-rule="nonzero"/></clipPath><clipPath id="78ec26b78a"><path d="M 206 53 L 261 53 L 261 100 L 206 100 Z M 206 53 " clip-rule="nonzero"/></clipPath><clipPath id="1ff36661a5"><path d="M 196.578125 80.890625 L 247.410156 42.433594 L 267.320312 68.746094 L 216.484375 107.203125 Z M 196.578125 80.890625 " clip-rule="nonzero"/></clipPath><clipPath id="75db4c00d4"><path d="M 196.578125 80.890625 L 247.410156 42.433594 L 267.320312 68.746094 L 216.484375 107.203125 Z M 196.578125 80.890625 " clip-rule="nonzero"/></clipPath><clipPath id="77cf865a2a"><path d="M 238 83 L 243 83 L 243 89 L 238 89 Z M 238 83 " clip-rule="nonzero"/></clipPath><clipPath id="d1d08aed19"><path d="M 196.578125 80.890625 L 247.410156 42.433594 L 267.320312 68.746094 L 216.484375 107.203125 Z M 196.578125 80.890625 " clip-rule="nonzero"/></clipPath><clipPath id="85a7abd410"><path d="M 196.578125 80.890625 L 247.410156 42.433594 L 267.320312 68.746094 L 216.484375 107.203125 Z M 196.578125 80.890625 " clip-rule="nonzero"/></clipPath><clipPath id="efe61734a5"><path d="M 235 85 L 240 85 L 240 90 L 235 90 Z M 235 85 " clip-rule="nonzero"/></clipPath><clipPath id="e48464734e"><path d="M 196.578125 80.890625 L 247.410156 42.433594 L 267.320312 68.746094 L 216.484375 107.203125 Z M 196.578125 80.890625 " clip-rule="nonzero"/></clipPath><clipPath id="5e4865839a"><path d="M 196.578125 80.890625 L 247.410156 42.433594 L 267.320312 68.746094 L 216.484375 107.203125 Z M 196.578125 80.890625 " clip-rule="nonzero"/></clipPath><clipPath id="86d553fffa"><path d="M 232 87 L 237 87 L 237 92 L 232 92 Z M 232 87 " clip-rule="nonzero"/></clipPath><clipPath id="c3614a97f1"><path d="M 196.578125 80.890625 L 247.410156 42.433594 L 267.320312 68.746094 L 216.484375 107.203125 Z M 196.578125 80.890625 " clip-rule="nonzero"/></clipPath><clipPath id="4038372c5b"><path d="M 196.578125 80.890625 L 247.410156 42.433594 L 267.320312 68.746094 L 216.484375 107.203125 Z M 196.578125 80.890625 " clip-rule="nonzero"/></clipPath><clipPath id="02ebf3976a"><path d="M 229 89 L 234 89 L 234 94 L 229 94 Z M 229 89 " clip-rule="nonzero"/></clipPath><clipPath id="06276be331"><path d="M 196.578125 80.890625 L 247.410156 42.433594 L 267.320312 68.746094 L 216.484375 107.203125 Z M 196.578125 80.890625 " clip-rule="nonzero"/></clipPath><clipPath id="b34dce61e4"><path d="M 196.578125 80.890625 L 247.410156 42.433594 L 267.320312 68.746094 L 216.484375 107.203125 Z M 196.578125 80.890625 " clip-rule="nonzero"/></clipPath><clipPath id="1582920b97"><path d="M 226 90 L 231 90 L 231 96 L 226 96 Z M 226 90 " clip-rule="nonzero"/></clipPath><clipPath id="f8f2425d0c"><path d="M 196.578125 80.890625 L 247.410156 42.433594 L 267.320312 68.746094 L 216.484375 107.203125 Z M 196.578125 80.890625 " clip-rule="nonzero"/></clipPath><clipPath id="95505627a4"><path d="M 196.578125 80.890625 L 247.410156 42.433594 L 267.320312 68.746094 L 216.484375 107.203125 Z M 196.578125 80.890625 " clip-rule="nonzero"/></clipPath><clipPath id="6ec8c113e5"><path d="M 223 92 L 227 92 L 227 97 L 223 97 Z M 223 92 " clip-rule="nonzero"/></clipPath><clipPath id="325a7deb81"><path d="M 196.578125 80.890625 L 247.410156 42.433594 L 267.320312 68.746094 L 216.484375 107.203125 Z M 196.578125 80.890625 " clip-rule="nonzero"/></clipPath><clipPath id="1595a14b4d"><path d="M 196.578125 80.890625 L 247.410156 42.433594 L 267.320312 68.746094 L 216.484375 107.203125 Z M 196.578125 80.890625 " clip-rule="nonzero"/></clipPath><clipPath id="3a983f78ad"><path d="M 219 93 L 224 93 L 224 98 L 219 98 Z M 219 93 " clip-rule="nonzero"/></clipPath><clipPath id="3963368056"><path d="M 196.578125 80.890625 L 247.410156 42.433594 L 267.320312 68.746094 L 216.484375 107.203125 Z M 196.578125 80.890625 " clip-rule="nonzero"/></clipPath><clipPath id="ef4a99eea0"><path d="M 196.578125 80.890625 L 247.410156 42.433594 L 267.320312 68.746094 L 216.484375 107.203125 Z M 196.578125 80.890625 " clip-rule="nonzero"/></clipPath><clipPath id="d62bf206e9"><path d="M 215 93 L 220 93 L 220 99 L 215 99 Z M 215 93 " clip-rule="nonzero"/></clipPath><clipPath id="22b0bb6b7f"><path d="M 196.578125 80.890625 L 247.410156 42.433594 L 267.320312 68.746094 L 216.484375 107.203125 Z M 196.578125 80.890625 " clip-rule="nonzero"/></clipPath><clipPath id="7392fc70e4"><path d="M 196.578125 80.890625 L 247.410156 42.433594 L 267.320312 68.746094 L 216.484375 107.203125 Z M 196.578125 80.890625 " clip-rule="nonzero"/></clipPath><clipPath id="c5ff3bda08"><path d="M 211 94 L 216 94 L 216 100 L 211 100 Z M 211 94 " clip-rule="nonzero"/></clipPath><clipPath id="cb1289b232"><path d="M 196.578125 80.890625 L 247.410156 42.433594 L 267.320312 68.746094 L 216.484375 107.203125 Z M 196.578125 80.890625 " clip-rule="nonzero"/></clipPath><clipPath id="b2b7136e9e"><path d="M 196.578125 80.890625 L 247.410156 42.433594 L 267.320312 68.746094 L 216.484375 107.203125 Z M 196.578125 80.890625 " clip-rule="nonzero"/></clipPath><clipPath id="5cd6f318e6"><path d="M 240 81 L 245 81 L 245 86 L 240 86 Z M 240 81 " clip-rule="nonzero"/></clipPath><clipPath id="4b3fad7cf1"><path d="M 196.578125 80.890625 L 247.410156 42.433594 L 267.320312 68.746094 L 216.484375 107.203125 Z M 196.578125 80.890625 " clip-rule="nonzero"/></clipPath><clipPath id="984016f0a2"><path d="M 196.578125 80.890625 L 247.410156 42.433594 L 267.320312 68.746094 L 216.484375 107.203125 Z M 196.578125 80.890625 " clip-rule="nonzero"/></clipPath><clipPath id="56fb3d21f9"><path d="M 243 79 L 248 79 L 248 84 L 243 84 Z M 243 79 " clip-rule="nonzero"/></clipPath><clipPath id="65883f9607"><path d="M 196.578125 80.890625 L 247.410156 42.433594 L 267.320312 68.746094 L 216.484375 107.203125 Z M 196.578125 80.890625 " clip-rule="nonzero"/></clipPath><clipPath id="4bf848bcdf"><path d="M 196.578125 80.890625 L 247.410156 42.433594 L 267.320312 68.746094 L 216.484375 107.203125 Z M 196.578125 80.890625 " clip-rule="nonzero"/></clipPath><clipPath id="e26c39e895"><path d="M 246 76 L 250 76 L 250 82 L 246 82 Z M 246 76 " clip-rule="nonzero"/></clipPath><clipPath id="7e87e12a76"><path d="M 196.578125 80.890625 L 247.410156 42.433594 L 267.320312 68.746094 L 216.484375 107.203125 Z M 196.578125 80.890625 " clip-rule="nonzero"/></clipPath><clipPath id="3339e638b0"><path d="M 196.578125 80.890625 L 247.410156 42.433594 L 267.320312 68.746094 L 216.484375 107.203125 Z M 196.578125 80.890625 " clip-rule="nonzero"/></clipPath><clipPath id="31bcefcef7"><path d="M 248 73 L 253 73 L 253 79 L 248 79 Z M 248 73 " clip-rule="nonzero"/></clipPath><clipPath id="4f9d1c36fb"><path d="M 196.578125 80.890625 L 247.410156 42.433594 L 267.320312 68.746094 L 216.484375 107.203125 Z M 196.578125 80.890625 " clip-rule="nonzero"/></clipPath><clipPath id="56eb9f171c"><path d="M 196.578125 80.890625 L 247.410156 42.433594 L 267.320312 68.746094 L 216.484375 107.203125 Z M 196.578125 80.890625 " clip-rule="nonzero"/></clipPath><clipPath id="dd0ff7426f"><path d="M 250 71 L 255 71 L 255 76 L 250 76 Z M 250 71 " clip-rule="nonzero"/></clipPath><clipPath id="e7d91fd743"><path d="M 196.578125 80.890625 L 247.410156 42.433594 L 267.320312 68.746094 L 216.484375 107.203125 Z M 196.578125 80.890625 " clip-rule="nonzero"/></clipPath><clipPath id="b7c13a0f1a"><path d="M 196.578125 80.890625 L 247.410156 42.433594 L 267.320312 68.746094 L 216.484375 107.203125 Z M 196.578125 80.890625 " clip-rule="nonzero"/></clipPath><clipPath id="090799b1d9"><path d="M 252 67 L 257 67 L 257 73 L 252 73 Z M 252 67 " clip-rule="nonzero"/></clipPath><clipPath id="509547364a"><path d="M 196.578125 80.890625 L 247.410156 42.433594 L 267.320312 68.746094 L 216.484375 107.203125 Z M 196.578125 80.890625 " clip-rule="nonzero"/></clipPath><clipPath id="9ca676fd0f"><path d="M 196.578125 80.890625 L 247.410156 42.433594 L 267.320312 68.746094 L 216.484375 107.203125 Z M 196.578125 80.890625 " clip-rule="nonzero"/></clipPath><clipPath id="ad85d64ab3"><path d="M 254 64 L 259 64 L 259 70 L 254 70 Z M 254 64 " clip-rule="nonzero"/></clipPath><clipPath id="a304a31105"><path d="M 196.578125 80.890625 L 247.410156 42.433594 L 267.320312 68.746094 L 216.484375 107.203125 Z M 196.578125 80.890625 " clip-rule="nonzero"/></clipPath><clipPath id="86b69dd8c0"><path d="M 196.578125 80.890625 L 247.410156 42.433594 L 267.320312 68.746094 L 216.484375 107.203125 Z M 196.578125 80.890625 " clip-rule="nonzero"/></clipPath><clipPath id="5cbfd0ad56"><path d="M 255 60 L 260 60 L 260 66 L 255 66 Z M 255 60 " clip-rule="nonzero"/></clipPath><clipPath id="851b10d77b"><path d="M 196.578125 80.890625 L 247.410156 42.433594 L 267.320312 68.746094 L 216.484375 107.203125 Z M 196.578125 80.890625 " clip-rule="nonzero"/></clipPath><clipPath id="23c40058ba"><path d="M 196.578125 80.890625 L 247.410156 42.433594 L 267.320312 68.746094 L 216.484375 107.203125 Z M 196.578125 80.890625 " clip-rule="nonzero"/></clipPath><clipPath id="bbcd48c215"><path d="M 476 36 L 544 36 L 544 104 L 476 104 Z M 476 36 " clip-rule="nonzero"/></clipPath><clipPath id="02c5265e8b"><path d="M 479.265625 32.308594 L 547.167969 39.097656 L 540.378906 107 L 472.476562 100.210938 Z M 479.265625 32.308594 " clip-rule="nonzero"/></clipPath><clipPath id="f40b66bad2"><path d="M 479.265625 32.308594 L 547.167969 39.097656 L 540.378906 107 L 472.476562 100.210938 Z M 479.265625 32.308594 " clip-rule="nonzero"/></clipPath><clipPath id="7c04a4b6df"><path d="M 475 35 L 545 35 L 545 105 L 475 105 Z M 475 35 " clip-rule="nonzero"/></clipPath><clipPath id="3c7516b5ee"><path d="M 479.265625 32.308594 L 547.167969 39.097656 L 540.378906 107 L 472.476562 100.210938 Z M 479.265625 32.308594 " clip-rule="nonzero"/></clipPath><clipPath id="1ed79d7470"><path d="M 479.265625 32.308594 L 547.167969 39.097656 L 540.378906 107 L 472.476562 100.210938 Z M 479.265625 32.308594 " clip-rule="nonzero"/></clipPath><clipPath id="cb6d1e801a"><path d="M 499 56 L 505 56 L 505 63 L 499 63 Z M 499 56 " clip-rule="nonzero"/></clipPath><clipPath id="e18589b9dd"><path d="M 479.265625 32.308594 L 547.167969 39.097656 L 540.378906 107 L 472.476562 100.210938 Z M 479.265625 32.308594 " clip-rule="nonzero"/></clipPath><clipPath id="fd97090393"><path d="M 479.265625 32.308594 L 547.167969 39.097656 L 540.378906 107 L 472.476562 100.210938 Z M 479.265625 32.308594 " clip-rule="nonzero"/></clipPath><clipPath id="a41e9c4bc6"><path d="M 515 56 L 521 56 L 521 63 L 515 63 Z M 515 56 " clip-rule="nonzero"/></clipPath><clipPath id="6b5d25896c"><path d="M 479.265625 32.308594 L 547.167969 39.097656 L 540.378906 107 L 472.476562 100.210938 Z M 479.265625 32.308594 " clip-rule="nonzero"/></clipPath><clipPath id="d0148b468c"><path d="M 479.265625 32.308594 L 547.167969 39.097656 L 540.378906 107 L 472.476562 100.210938 Z M 479.265625 32.308594 " clip-rule="nonzero"/></clipPath><clipPath id="5f0c329e0c"><path d="M 492 71 L 529 71 L 529 91 L 492 91 Z M 492 71 " clip-rule="nonzero"/></clipPath><clipPath id="fbf9a17995"><path d="M 479.265625 32.308594 L 547.167969 39.097656 L 540.378906 107 L 472.476562 100.210938 Z M 479.265625 32.308594 " clip-rule="nonzero"/></clipPath><clipPath id="cf31680464"><path d="M 479.265625 32.308594 L 547.167969 39.097656 L 540.378906 107 L 472.476562 100.210938 Z M 479.265625 32.308594 " clip-rule="nonzero"/></clipPath><clipPath id="d454c8c5c2"><path d="M 840.582031 42.59375 L 913.324219 42.59375 L 913.324219 107.085938 L 840.582031 107.085938 Z M 840.582031 42.59375 " clip-rule="nonzero"/></clipPath></defs><g clip-path="url(#a4d4c110d9)"><path fill="#ffffff" d="M 0 0.0078125 L 944.878906 0.0078125 L 944.878906 149.992188 L 0 149.992188 Z M 0 0.0078125 " fill-opacity="1" fill-rule="nonzero"/><path fill="#f3f1ea" d="M 0 0.0078125 L 944.878906 0.0078125 L 944.878906 149.992188 L 0 149.992188 Z M 0 0.0078125 " fill-opacity="1" fill-rule="nonzero"/></g><g fill="#000000" fill-opacity="1"><g transform="translate(318.057415, 96.732281)"><g><path d="M 21.34375 0 L 12.953125 0 L 12.953125 -33.078125 L 0.8125 -33.078125 L 0.8125 -40.1875 L 33.515625 -40.1875 L 33.515625 -33.078125 L 21.34375 -33.078125 Z M 21.34375 0 "/></g></g></g><g fill="#000000" fill-opacity="1"><g transform="translate(352.392012, 96.732281)"><g><path d="M 3.828125 -29.796875 L 11.34375 -29.796875 L 11.34375 -24.625 L 11.453125 -24.625 C 12.367188 -26.582031 13.472656 -28.0625 14.765625 -29.0625 C 16.054688 -30.0625 17.675781 -30.5625 19.625 -30.5625 C 20.132812 -30.5625 20.632812 -30.523438 21.125 -30.453125 L 21.125 -22.5 C 20.757812 -22.570312 20.015625 -22.609375 18.890625 -22.609375 C 16.441406 -22.609375 14.625 -22.019531 13.4375 -20.84375 C 12.257812 -19.664062 11.671875 -17.882812 11.671875 -15.5 L 11.671875 0 L 3.828125 0 Z M 3.828125 -29.796875 "/></g></g></g><g fill="#000000" fill-opacity="1"><g transform="translate(374.479873, 96.732281)"><g><path d="M 20.140625 -0.484375 C 18.671875 3.734375 17.5625 6.546875 16.8125 7.953125 C 16.0625 9.359375 15.148438 10.382812 14.078125 11.03125 C 13.003906 11.675781 11.191406 12 8.640625 12 C 7.328125 12 6.140625 11.9375 5.078125 11.8125 L 5.078125 5.609375 C 5.648438 5.679688 6.363281 5.71875 7.21875 5.71875 C 8.34375 5.71875 9.265625 5.476562 9.984375 5 C 10.710938 4.53125 11.320312 3.289062 11.8125 1.28125 L 0.765625 -29.796875 L 9.515625 -29.796875 L 15.875 -7.84375 L 16.015625 -7.84375 L 22.109375 -29.796875 L 30.390625 -29.796875 Z M 20.140625 -0.484375 "/></g></g></g><g fill="#000000" fill-opacity="1"><g transform="translate(405.72545, 96.732281)"><g/></g></g><g fill="#000000" fill-opacity="1"><g transform="translate(420.760504, 96.732281)"><g><path d="M 11.671875 -33.328125 L 3.828125 -33.328125 L 3.828125 -40.59375 L 11.671875 -40.59375 Z M 11.671875 -29.796875 L 11.671875 0 L 3.828125 0 L 3.828125 -29.796875 Z M 11.671875 -29.796875 "/></g></g></g><g fill="#000000" fill-opacity="1"><g transform="translate(436.260278, 96.732281)"><g><path d="M 12.578125 -29.796875 L 17.4375 -29.796875 L 17.4375 -24.1875 L 12.578125 -24.1875 L 12.578125 -7.484375 C 12.578125 -6.703125 12.789062 -6.191406 13.21875 -5.953125 C 13.644531 -5.722656 14.304688 -5.609375 15.203125 -5.609375 C 16.085938 -5.609375 16.832031 -5.644531 17.4375 -5.71875 L 17.4375 0.109375 C 16.289062 0.285156 14.878906 0.375 13.203125 0.375 C 10.109375 0.375 7.921875 -0.09375 6.640625 -1.03125 C 5.367188 -1.96875 4.734375 -3.65625 4.734375 -6.09375 L 4.734375 -24.1875 L 0.6875 -24.1875 L 0.6875 -29.796875 L 4.734375 -29.796875 L 4.734375 -37.828125 L 12.578125 -37.828125 Z M 12.578125 -29.796875 "/></g></g></g><g fill="#000000" fill-opacity="1"><g transform="translate(34.388247, 96.732281)"><g><path d="M 12.171875 -24.46875 L 22 -24.46875 C 23.914062 -24.46875 25.382812 -24.859375 26.40625 -25.640625 C 27.425781 -26.421875 27.9375 -27.523438 27.9375 -28.953125 C 27.9375 -30.367188 27.46875 -31.441406 26.53125 -32.171875 C 25.59375 -32.898438 24.007812 -33.265625 21.78125 -33.265625 L 12.171875 -33.265625 Z M 12.171875 -6.9375 L 22.4375 -6.9375 C 24.5 -6.9375 26.085938 -7.398438 27.203125 -8.328125 C 28.328125 -9.265625 28.890625 -10.765625 28.890625 -12.828125 C 28.890625 -14.316406 28.351562 -15.5 27.28125 -16.375 C 26.207031 -17.25 24.734375 -17.6875 22.859375 -17.6875 L 12.171875 -17.6875 Z M 4.09375 -40.1875 L 23.625 -40.1875 C 27.644531 -40.1875 30.710938 -39.210938 32.828125 -37.265625 C 34.941406 -35.328125 36 -32.875 36 -29.90625 C 36 -25.800781 34.359375 -23.054688 31.078125 -21.671875 C 35.210938 -20.085938 37.28125 -16.835938 37.28125 -11.921875 C 37.28125 -10.316406 36.972656 -8.789062 36.359375 -7.34375 C 35.753906 -5.90625 34.804688 -4.570312 33.515625 -3.34375 C 32.234375 -2.113281 30.703125 -1.25 28.921875 -0.75 C 27.140625 -0.25 24.535156 0 21.109375 0 L 4.09375 0 Z M 4.09375 -40.1875 "/></g></g></g><g fill="#000000" fill-opacity="1"><g transform="translate(73.862099, 96.732281)"><g><path d="M 30.5 0 L 23.015625 0 L 23.015625 -4.203125 L 22.90625 -4.203125 C 20.914062 -0.867188 17.890625 0.796875 13.828125 0.796875 C 10.679688 0.796875 8.203125 -0.128906 6.390625 -1.984375 C 4.585938 -3.847656 3.6875 -6.585938 3.6875 -10.203125 L 3.6875 -29.796875 L 11.53125 -29.796875 L 11.53125 -11.3125 C 11.53125 -9.414062 11.96875 -8.023438 12.84375 -7.140625 C 13.71875 -6.265625 14.976562 -5.828125 16.625 -5.828125 C 18.382812 -5.828125 19.828125 -6.410156 20.953125 -7.578125 C 22.085938 -8.753906 22.65625 -10.429688 22.65625 -12.609375 L 22.65625 -29.796875 L 30.5 -29.796875 Z M 30.5 0 "/></g></g></g><g fill="#000000" fill-opacity="1"><g transform="translate(108.196696, 96.732281)"><g><path d="M 20.140625 -0.484375 C 18.671875 3.734375 17.5625 6.546875 16.8125 7.953125 C 16.0625 9.359375 15.148438 10.382812 14.078125 11.03125 C 13.003906 11.675781 11.191406 12 8.640625 12 C 7.328125 12 6.140625 11.9375 5.078125 11.8125 L 5.078125 5.609375 C 5.648438 5.679688 6.363281 5.71875 7.21875 5.71875 C 8.34375 5.71875 9.265625 5.476562 9.984375 5 C 10.710938 4.53125 11.320312 3.289062 11.8125 1.28125 L 0.765625 -29.796875 L 9.515625 -29.796875 L 15.875 -7.84375 L 16.015625 -7.84375 L 22.109375 -29.796875 L 30.390625 -29.796875 Z M 20.140625 -0.484375 "/></g></g></g><g fill="#000000" fill-opacity="1"><g transform="translate(139.442272, 96.732281)"><g/></g></g><g fill="#000000" fill-opacity="1"><g transform="translate(154.477326, 96.732281)"><g><path d="M 11.671875 -33.328125 L 3.828125 -33.328125 L 3.828125 -40.59375 L 11.671875 -40.59375 Z M 11.671875 -29.796875 L 11.671875 0 L 3.828125 0 L 3.828125 -29.796875 Z M 11.671875 -29.796875 "/></g></g></g><g fill="#000000" fill-opacity="1"><g transform="translate(169.977101, 96.732281)"><g><path d="M 12.578125 -29.796875 L 17.4375 -29.796875 L 17.4375 -24.1875 L 12.578125 -24.1875 L 12.578125 -7.484375 C 12.578125 -6.703125 12.789062 -6.191406 13.21875 -5.953125 C 13.644531 -5.722656 14.304688 -5.609375 15.203125 -5.609375 C 16.085938 -5.609375 16.832031 -5.644531 17.4375 -5.71875 L 17.4375 0.109375 C 16.289062 0.285156 14.878906 0.375 13.203125 0.375 C 10.109375 0.375 7.921875 -0.09375 6.640625 -1.03125 C 5.367188 -1.96875 4.734375 -3.65625 4.734375 -6.09375 L 4.734375 -24.1875 L 0.6875 -24.1875 L 0.6875 -29.796875 L 4.734375 -29.796875 L 4.734375 -37.828125 L 12.578125 -37.828125 Z M 12.578125 -29.796875 "/></g></g></g><g fill="#000000" fill-opacity="1"><g transform="translate(584.878128, 96.903408)"><g><path d="M 22.171875 -22.5 C 24.378906 -22.5 26.015625 -22.914062 27.078125 -23.75 C 28.148438 -24.59375 28.6875 -26.007812 28.6875 -28 C 28.6875 -29.644531 28.1875 -30.9375 27.1875 -31.875 C 26.195312 -32.8125 24.738281 -33.28125 22.8125 -33.28125 L 12.328125 -33.28125 L 12.328125 -22.5 Z M 4.109375 -40.203125 L 24.421875 -40.203125 C 28.554688 -40.203125 31.695312 -39.09375 33.84375 -36.875 C 36 -34.65625 37.078125 -31.976562 37.078125 -28.84375 C 37.078125 -24.175781 35.007812 -20.988281 30.875 -19.28125 C 32.789062 -18.550781 34.113281 -17.5 34.84375 -16.125 C 35.582031 -14.75 35.953125 -12.265625 35.953125 -8.671875 C 35.953125 -5.097656 36.082031 -2.992188 36.34375 -2.359375 C 36.613281 -1.734375 37.078125 -1.300781 37.734375 -1.0625 L 37.734375 0 L 28.46875 0 C 27.863281 -1.800781 27.5625 -4.410156 27.5625 -7.828125 C 27.5625 -10.679688 27.367188 -12.523438 26.984375 -13.359375 C 26.609375 -14.191406 25.976562 -14.789062 25.09375 -15.15625 C 24.207031 -15.53125 22.84375 -15.71875 21 -15.71875 L 12.328125 -15.71875 L 12.328125 0 L 4.109375 0 Z M 4.109375 -40.203125 "/></g></g></g><g fill="#000000" fill-opacity="1"><g transform="translate(624.655086, 96.903408)"><g><path d="M 22.390625 -17.859375 C 22.234375 -19.753906 21.613281 -21.273438 20.53125 -22.421875 C 19.457031 -23.566406 18.066406 -24.140625 16.359375 -24.140625 C 12.640625 -24.140625 10.515625 -22.046875 9.984375 -17.859375 Z M 30.140625 -8.71875 C 29.222656 -5.644531 27.585938 -3.289062 25.234375 -1.65625 C 22.890625 -0.0195312 20.15625 0.796875 17.03125 0.796875 C 12.132812 0.796875 8.390625 -0.554688 5.796875 -3.265625 C 3.210938 -5.972656 1.921875 -9.722656 1.921875 -14.515625 C 1.921875 -19.328125 3.132812 -23.207031 5.5625 -26.15625 C 8 -29.101562 11.632812 -30.578125 16.46875 -30.578125 C 20.800781 -30.578125 24.21875 -29.195312 26.71875 -26.4375 C 29.21875 -23.6875 30.46875 -19.597656 30.46875 -14.171875 L 30.46875 -12.765625 L 9.765625 -12.765625 C 9.941406 -10.347656 10.648438 -8.53125 11.890625 -7.3125 C 13.128906 -6.101562 14.816406 -5.5 16.953125 -5.5 C 18.234375 -5.5 19.335938 -5.796875 20.265625 -6.390625 C 21.191406 -6.984375 21.789062 -7.757812 22.0625 -8.71875 Z M 30.140625 -8.71875 "/></g></g></g><g fill="#000000" fill-opacity="1"><g transform="translate(656.750027, 96.903408)"><g><path d="M 19.609375 0 L 11.375 0 L 0.6875 -29.8125 L 9.40625 -29.8125 L 15.5625 -7.84375 L 15.671875 -7.84375 L 22.015625 -29.8125 L 30.359375 -29.8125 Z M 19.609375 0 "/></g></g></g><g fill="#000000" fill-opacity="1"><g transform="translate(687.696767, 96.903408)"><g><path d="M 11.671875 -33.328125 L 3.828125 -33.328125 L 3.828125 -40.609375 L 11.671875 -40.609375 Z M 11.671875 -29.8125 L 11.671875 0 L 3.828125 0 L 3.828125 -29.8125 Z M 11.671875 -29.8125 "/></g></g></g><g fill="#000000" fill-opacity="1"><g transform="translate(703.197484, 96.903408)"><g><path d="M 22.390625 -17.859375 C 22.234375 -19.753906 21.613281 -21.273438 20.53125 -22.421875 C 19.457031 -23.566406 18.066406 -24.140625 16.359375 -24.140625 C 12.640625 -24.140625 10.515625 -22.046875 9.984375 -17.859375 Z M 30.140625 -8.71875 C 29.222656 -5.644531 27.585938 -3.289062 25.234375 -1.65625 C 22.890625 -0.0195312 20.15625 0.796875 17.03125 0.796875 C 12.132812 0.796875 8.390625 -0.554688 5.796875 -3.265625 C 3.210938 -5.972656 1.921875 -9.722656 1.921875 -14.515625 C 1.921875 -19.328125 3.132812 -23.207031 5.5625 -26.15625 C 8 -29.101562 11.632812 -30.578125 16.46875 -30.578125 C 20.800781 -30.578125 24.21875 -29.195312 26.71875 -26.4375 C 29.21875 -23.6875 30.46875 -19.597656 30.46875 -14.171875 L 30.46875 -12.765625 L 9.765625 -12.765625 C 9.941406 -10.347656 10.648438 -8.53125 11.890625 -7.3125 C 13.128906 -6.101562 14.816406 -5.5 16.953125 -5.5 C 18.234375 -5.5 19.335938 -5.796875 20.265625 -6.390625 C 21.191406 -6.984375 21.789062 -7.757812 22.0625 -8.71875 Z M 30.140625 -8.71875 "/></g></g></g><g fill="#000000" fill-opacity="1"><g transform="translate(735.292425, 96.903408)"><g><path d="M 34.75 0 L 26.6875 0 L 22.046875 -21.734375 L 21.9375 -21.734375 L 17.28125 0 L 9.21875 0 L 0.796875 -29.8125 L 9.15625 -29.8125 L 13.8125 -8.390625 L 13.921875 -8.390625 L 18.109375 -29.8125 L 26 -29.8125 L 30.484375 -8.390625 L 30.59375 -8.390625 L 35.25 -29.8125 L 43.3125 -29.8125 Z M 34.75 0 "/></g></g></g><g fill="#000000" fill-opacity="1"><g transform="translate(779.279452, 96.903408)"><g/></g></g><g fill="#000000" fill-opacity="1"><g transform="translate(794.315413, 96.903408)"><g><path d="M 11.671875 -33.328125 L 3.828125 -33.328125 L 3.828125 -40.609375 L 11.671875 -40.609375 Z M 11.671875 -29.8125 L 11.671875 0 L 3.828125 0 L 3.828125 -29.8125 Z M 11.671875 -29.8125 "/></g></g></g><g fill="#000000" fill-opacity="1"><g transform="translate(809.81613, 96.903408)"><g><path d="M 12.578125 -29.8125 L 17.453125 -29.8125 L 17.453125 -24.203125 L 12.578125 -24.203125 L 12.578125 -7.5 C 12.578125 -6.707031 12.789062 -6.191406 13.21875 -5.953125 C 13.644531 -5.722656 14.304688 -5.609375 15.203125 -5.609375 C 16.097656 -5.609375 16.847656 -5.644531 17.453125 -5.71875 L 17.453125 0.109375 C 16.296875 0.296875 14.878906 0.390625 13.203125 0.390625 C 10.109375 0.390625 7.921875 -0.078125 6.640625 -1.015625 C 5.367188 -1.960938 4.734375 -3.65625 4.734375 -6.09375 L 4.734375 -24.203125 L 0.6875 -24.203125 L 0.6875 -29.8125 L 4.734375 -29.8125 L 4.734375 -37.84375 L 12.578125 -37.84375 Z M 12.578125 -29.8125 "/></g></g></g><g clip-path="url(#23eca8a928)"><g clip-path="url(#f3a0f0a831)"><g clip-path="url(#0115e1c92e)"><path fill="#5e1ff0" d="M 238.925781 83.183594 C 225.128906 93.617188 210.535156 97.179688 206.085938 91.300781 L 209.382812 95.660156 C 211.289062 98.179688 215.042969 98.984375 219.992188 98.132812 C 222.1875 97.792969 224.332031 97.300781 227.144531 96.117188 C 229.066406 95.417969 231.371094 94.304688 233.570312 93.140625 C 235.339844 92.242188 237.460938 90.890625 239.511719 89.527344 C 240.34375 88.960938 241.132812 88.425781 242.332031 87.519531 C 243.132812 86.914062 243.859375 86.300781 245.03125 85.351562 C 246.527344 84.09375 248.375 82.378906 250.125 80.617188 C 251.871094 78.855469 253.136719 77.207031 254.734375 75.242188 C 256.242188 73.160156 257.613281 70.992188 258.539062 68.972656 C 260.304688 64.742188 260.460938 61.039062 258.527344 58.480469 L 255.226562 54.125 C 259.714844 59.972656 252.320312 73.046875 238.925781 83.183594 Z M 238.925781 83.183594 " fill-opacity="1" fill-rule="nonzero"/></g></g></g><g clip-path="url(#7b181b036b)"><g clip-path="url(#68b321e92d)"><g clip-path="url(#ab149ccaff)"><path fill="#5e1ff0" d="M 222.820312 61.980469 C 209.144531 72.324219 201.601562 85.453125 206.078125 91.371094 C 210.554688 97.289062 225.238281 93.597656 238.914062 83.253906 C 252.589844 72.90625 259.734375 60.082031 255.257812 54.164062 C 250.78125 48.246094 236.535156 51.605469 222.820312 61.980469 Z M 236.828125 80.492188 C 224.871094 89.539062 212.460938 93.328125 209.195312 89.011719 C 205.929688 84.691406 212.921875 73.742188 224.878906 64.699219 C 229.714844 61.039062 234.617188 58.210938 238.972656 56.488281 L 242.949219 55.175781 C 247.445312 53.976562 251.015625 54.292969 252.5 56.25 C 255.804688 60.539062 248.78125 71.449219 236.828125 80.492188 Z M 236.828125 80.492188 " fill-opacity="1" fill-rule="nonzero"/></g></g></g><g clip-path="url(#1aced2c286)"><g clip-path="url(#ddb6c3c23b)"><g clip-path="url(#87351ec182)"><path fill="#5e1ff0" d="M 242.988281 55.148438 L 239.011719 56.457031 C 234.6875 58.21875 229.757812 61.007812 224.917969 64.667969 C 212.921875 73.742188 205.9375 84.621094 209.234375 88.980469 C 212.53125 93.339844 224.871094 89.539062 236.828125 80.492188 C 248.78125 71.449219 255.804688 60.539062 252.539062 56.21875 C 251.058594 54.261719 247.484375 53.945312 242.988281 55.148438 Z M 242.988281 55.148438 " fill-opacity="1" fill-rule="nonzero"/></g></g></g><g clip-path="url(#a0ed23266c)"><g clip-path="url(#e7b8be24ec)"><g clip-path="url(#091bf1bc1d)"><path stroke-linecap="round" transform="matrix(0.399851, -0.3025, 0.3025, 0.399851, 187.10003, 68.696954)" fill="none" stroke-linejoin="round" d="M 125.497625 58.499556 C 125.496717 73.299291 98.597867 85.19776 64.19914 85.199316 C 29.800414 85.200872 1.902636 73.200252 1.900031 58.495552 C 1.896239 43.70203 29.801685 31.803082 64.200411 31.801526 C 98.599137 31.79997 125.498533 43.69982 125.497625 58.499556 Z M 125.497625 58.499556 " stroke="#000000" stroke-width="2" stroke-opacity="1" stroke-miterlimit="10"/></g></g></g><g clip-path="url(#bf7fbb48fe)"><g clip-path="url(#cf2aedabc4)"><g clip-path="url(#9c61704e4d)"><path stroke-linecap="round" transform="matrix(0.399851, -0.3025, 0.3025, 0.399851, 187.10003, 68.696954)" fill="none" stroke-linejoin="round" d="M 104.702432 45.297562 C 113.402813 48.802363 118.600494 53.398886 118.601055 58.498862 C 118.599254 69.399989 94.19976 78.304673 64.199834 78.302746 C 34.100172 78.30352 9.801396 69.396894 9.798496 58.50198 C 9.800297 47.600853 34.199791 38.696169 64.199717 38.698095 C 76.401947 38.697528 87.60065 40.204227 96.698306 42.602807 " stroke="#000000" stroke-width="2" stroke-opacity="1" stroke-miterlimit="10"/></g></g></g><g clip-path="url(#78ec26b78a)"><g clip-path="url(#1ff36661a5)"><g clip-path="url(#75db4c00d4)"><path stroke-linecap="round" transform="matrix(0.399851, -0.3025, 0.3025, 0.399851, 187.10003, 68.696954)" fill="none" stroke-linejoin="round" d="M 2.502475 61.999328 L 2.49967 69.402302 C 2.498762 84.202037 29.603842 96.101187 64.002569 96.099631 C 98.401295 96.098075 125.503129 84.099169 125.495824 69.400682 L 125.500215 58.999747 " stroke="#000000" stroke-width="2" stroke-opacity="1" stroke-miterlimit="10"/></g></g></g><g clip-path="url(#77cf865a2a)"><g clip-path="url(#d1d08aed19)"><g clip-path="url(#85a7abd410)"><path stroke-linecap="round" transform="matrix(0.399851, -0.3025, 0.3025, 0.399851, 187.10003, 68.696954)" fill="none" stroke-linejoin="round" d="M 63.499676 96.002485 L 63.497743 85.997305 " stroke="#000000" stroke-width="2" stroke-opacity="1" stroke-miterlimit="10"/></g></g></g><g clip-path="url(#efe61734a5)"><g clip-path="url(#e48464734e)"><g clip-path="url(#5e4865839a)"><path stroke-linecap="round" transform="matrix(0.399851, -0.3025, 0.3025, 0.399851, 187.10003, 68.696954)" fill="none" stroke-linejoin="round" d="M 57.498574 94.998929 L 57.49712 86.000345 " stroke="#000000" stroke-width="2" stroke-opacity="1" stroke-miterlimit="10"/></g></g></g><g clip-path="url(#86d553fffa)"><g clip-path="url(#c3614a97f1)"><g clip-path="url(#4038372c5b)"><path stroke-linecap="round" transform="matrix(0.399851, -0.3025, 0.3025, 0.399851, 187.10003, 68.696954)" fill="none" stroke-linejoin="round" d="M 50.502269 95.000936 L 50.500815 86.002352 " stroke="#000000" stroke-width="2" stroke-opacity="1" stroke-miterlimit="10"/></g></g></g><g clip-path="url(#02ebf3976a)"><g clip-path="url(#06276be331)"><g clip-path="url(#b34dce61e4)"><path stroke-linecap="round" transform="matrix(0.399851, -0.3025, 0.3025, 0.399851, 187.10003, 68.696954)" fill="none" stroke-linejoin="round" d="M 43.500783 94.00256 L 43.49933 85.003976 " stroke="#000000" stroke-width="2" stroke-opacity="1" stroke-miterlimit="10"/></g></g></g><g clip-path="url(#1582920b97)"><g clip-path="url(#f8f2425d0c)"><g clip-path="url(#95505627a4)"><path stroke-linecap="round" transform="matrix(0.399851, -0.3025, 0.3025, 0.399851, 187.10003, 68.696954)" fill="none" stroke-linejoin="round" d="M 36.499298 93.004184 L 36.502545 83.999387 " stroke="#000000" stroke-width="2" stroke-opacity="1" stroke-miterlimit="10"/></g></g></g><g clip-path="url(#6ec8c113e5)"><g clip-path="url(#325a7deb81)"><g clip-path="url(#1595a14b4d)"><path stroke-linecap="round" transform="matrix(0.399851, -0.3025, 0.3025, 0.399851, 187.10003, 68.696954)" fill="none" stroke-linejoin="round" d="M 29.497333 90.999211 L 29.495879 82.000628 " stroke="#000000" stroke-width="2" stroke-opacity="1" stroke-miterlimit="10"/></g></g></g><g clip-path="url(#3a983f78ad)"><g clip-path="url(#3963368056)"><g clip-path="url(#ef4a99eea0)"><path stroke-linecap="round" transform="matrix(0.399851, -0.3025, 0.3025, 0.399851, 187.10003, 68.696954)" fill="none" stroke-linejoin="round" d="M 22.501581 88.99894 L 22.500128 80.000356 " stroke="#000000" stroke-width="2" stroke-opacity="1" stroke-miterlimit="10"/></g></g></g><g clip-path="url(#d62bf206e9)"><g clip-path="url(#22b0bb6b7f)"><g clip-path="url(#7392fc70e4)"><path stroke-linecap="round" transform="matrix(0.399851, -0.3025, 0.3025, 0.399851, 187.10003, 68.696954)" fill="none" stroke-linejoin="round" d="M 15.500649 85.998285 L 15.500229 76.004019 " stroke="#000000" stroke-width="2" stroke-opacity="1" stroke-miterlimit="10"/></g></g></g><g clip-path="url(#c5ff3bda08)"><g clip-path="url(#cb1289b232)"><g clip-path="url(#b2b7136e9e)"><path stroke-linecap="round" transform="matrix(0.399851, -0.3025, 0.3025, 0.399851, 187.10003, 68.696954)" fill="none" stroke-linejoin="round" d="M 8.500271 80.995352 L 8.498817 71.996768 " stroke="#000000" stroke-width="2" stroke-opacity="1" stroke-miterlimit="10"/></g></g></g><g clip-path="url(#5cd6f318e6)"><g clip-path="url(#4b3fad7cf1)"><g clip-path="url(#984016f0a2)"><path stroke-linecap="round" transform="matrix(0.399851, -0.3025, 0.3025, 0.399851, 187.10003, 68.696954)" fill="none" stroke-linejoin="round" d="M 70.501715 94.998583 L 70.500262 85.999999 " stroke="#000000" stroke-width="2" stroke-opacity="1" stroke-miterlimit="10"/></g></g></g><g clip-path="url(#56fb3d21f9)"><g clip-path="url(#65883f9607)"><g clip-path="url(#4bf848bcdf)"><path stroke-linecap="round" transform="matrix(0.399851, -0.3025, 0.3025, 0.399851, 187.10003, 68.696954)" fill="none" stroke-linejoin="round" d="M 77.49802 94.996576 L 77.50278 86.002692 " stroke="#000000" stroke-width="2" stroke-opacity="1" stroke-miterlimit="10"/></g></g></g><g clip-path="url(#e26c39e895)"><g clip-path="url(#7e87e12a76)"><g clip-path="url(#3339e638b0)"><path stroke-linecap="round" transform="matrix(0.399851, -0.3025, 0.3025, 0.399851, 187.10003, 68.696954)" fill="none" stroke-linejoin="round" d="M 84.501572 94.003587 L 84.504819 84.99879 " stroke="#000000" stroke-width="2" stroke-opacity="1" stroke-miterlimit="10"/></g></g></g><g clip-path="url(#31bcefcef7)"><g clip-path="url(#4f9d1c36fb)"><g clip-path="url(#56eb9f171c)"><path stroke-linecap="round" transform="matrix(0.399851, -0.3025, 0.3025, 0.399851, 187.10003, 68.696954)" fill="none" stroke-linejoin="round" d="M 91.503611 92.999684 L 91.496977 83.000717 " stroke="#000000" stroke-width="2" stroke-opacity="1" stroke-miterlimit="10"/></g></g></g><g clip-path="url(#dd0ff7426f)"><g clip-path="url(#e7d91fd743)"><g clip-path="url(#b7c13a0f1a)"><path stroke-linecap="round" transform="matrix(0.399851, -0.3025, 0.3025, 0.399851, 187.10003, 68.696954)" fill="none" stroke-linejoin="round" d="M 98.495769 91.001612 L 98.499016 81.996815 " stroke="#000000" stroke-width="2" stroke-opacity="1" stroke-miterlimit="10"/></g></g></g><g clip-path="url(#090799b1d9)"><g clip-path="url(#509547364a)"><g clip-path="url(#9ca676fd0f)"><path stroke-linecap="round" transform="matrix(0.399851, -0.3025, 0.3025, 0.399851, 187.10003, 68.696954)" fill="none" stroke-linejoin="round" d="M 105.498841 89.002027 L 105.503121 79.001547 " stroke="#000000" stroke-width="2" stroke-opacity="1" stroke-miterlimit="10"/></g></g></g><g clip-path="url(#ad85d64ab3)"><g clip-path="url(#a304a31105)"><g clip-path="url(#86b69dd8c0)"><path stroke-linecap="round" transform="matrix(0.399851, -0.3025, 0.3025, 0.399851, 187.10003, 68.696954)" fill="none" stroke-linejoin="round" d="M 112.502467 85.000163 L 112.501013 76.001579 " stroke="#000000" stroke-width="2" stroke-opacity="1" stroke-miterlimit="10"/></g></g></g><g clip-path="url(#5cbfd0ad56)"><g clip-path="url(#851b10d77b)"><g clip-path="url(#23c40058ba)"><path stroke-linecap="round" transform="matrix(0.399851, -0.3025, 0.3025, 0.399851, 187.10003, 68.696954)" fill="none" stroke-linejoin="round" d="M 119.501392 81.004512 L 119.499459 70.999332 " stroke="#000000" stroke-width="2" stroke-opacity="1" stroke-miterlimit="10"/></g></g></g><g clip-path="url(#bbcd48c215)"><g clip-path="url(#02c5265e8b)"><g clip-path="url(#f40b66bad2)"><path fill="#dee021" d="M 542.980469 73.144531 C 542.871094 74.226562 542.710938 75.300781 542.496094 76.363281 C 542.285156 77.429688 542.019531 78.480469 541.703125 79.519531 C 541.386719 80.558594 541.019531 81.578125 540.601562 82.582031 C 540.183594 83.585938 539.71875 84.566406 539.207031 85.523438 C 538.691406 86.480469 538.132812 87.410156 537.527344 88.3125 C 536.921875 89.214844 536.277344 90.085938 535.585938 90.921875 C 534.894531 91.761719 534.164062 92.566406 533.394531 93.332031 C 532.625 94.097656 531.820312 94.828125 530.980469 95.515625 C 530.140625 96.203125 529.269531 96.847656 528.363281 97.449219 C 527.460938 98.050781 526.527344 98.609375 525.570312 99.117188 C 524.613281 99.628906 523.628906 100.089844 522.625 100.503906 C 521.621094 100.917969 520.601562 101.285156 519.558594 101.597656 C 518.519531 101.910156 517.46875 102.171875 516.402344 102.382812 C 515.335938 102.59375 514.261719 102.75 513.179688 102.855469 C 512.101562 102.960938 511.015625 103.011719 509.929688 103.011719 C 508.84375 103.011719 507.761719 102.953125 506.679688 102.847656 C 505.597656 102.738281 504.527344 102.578125 503.460938 102.363281 C 502.394531 102.152344 501.34375 101.886719 500.304688 101.570312 C 499.265625 101.253906 498.246094 100.886719 497.242188 100.46875 C 496.238281 100.050781 495.257812 99.585938 494.300781 99.074219 C 493.34375 98.558594 492.414062 98 491.511719 97.394531 C 490.609375 96.789062 489.738281 96.144531 488.902344 95.453125 C 488.0625 94.761719 487.261719 94.03125 486.492188 93.261719 C 485.726562 92.492188 485 91.6875 484.3125 90.847656 C 483.625 90.007812 482.976562 89.136719 482.375 88.230469 C 481.773438 87.328125 481.21875 86.394531 480.707031 85.4375 C 480.195312 84.480469 479.734375 83.496094 479.320312 82.492188 C 478.90625 81.488281 478.542969 80.46875 478.226562 79.425781 C 477.914062 78.386719 477.652344 77.335938 477.441406 76.269531 C 477.230469 75.203125 477.074219 74.128906 476.96875 73.046875 C 476.863281 71.96875 476.8125 70.882812 476.8125 69.796875 C 476.816406 68.710938 476.871094 67.628906 476.976562 66.546875 C 477.085938 65.464844 477.246094 64.394531 477.460938 63.328125 C 477.671875 62.261719 477.9375 61.210938 478.253906 60.171875 C 478.574219 59.132812 478.941406 58.113281 479.355469 57.109375 C 479.773438 56.105469 480.238281 55.125 480.753906 54.167969 C 481.265625 53.210938 481.824219 52.28125 482.429688 51.378906 C 483.035156 50.476562 483.683594 49.605469 484.371094 48.769531 C 485.0625 47.929688 485.792969 47.128906 486.5625 46.359375 C 487.332031 45.59375 488.136719 44.867188 488.976562 44.179688 C 489.816406 43.492188 490.691406 42.84375 491.59375 42.242188 C 492.496094 41.640625 493.429688 41.085938 494.386719 40.574219 C 495.347656 40.0625 496.328125 39.601562 497.332031 39.1875 C 498.335938 38.773438 499.359375 38.410156 500.398438 38.09375 C 501.4375 37.78125 502.492188 37.519531 503.554688 37.308594 C 504.621094 37.097656 505.695312 36.941406 506.777344 36.835938 C 507.859375 36.730469 508.941406 36.679688 510.027344 36.679688 C 511.113281 36.683594 512.195312 36.738281 513.277344 36.84375 C 514.359375 36.953125 515.433594 37.113281 516.496094 37.328125 C 517.5625 37.542969 518.613281 37.804688 519.652344 38.121094 C 520.691406 38.441406 521.710938 38.808594 522.714844 39.222656 C 523.71875 39.640625 524.699219 40.105469 525.65625 40.621094 C 526.613281 41.132812 527.542969 41.691406 528.445312 42.296875 C 529.347656 42.902344 530.21875 43.550781 531.054688 44.238281 C 531.894531 44.929688 532.699219 45.660156 533.464844 46.429688 C 534.230469 47.199219 534.957031 48.003906 535.648438 48.84375 C 536.335938 49.683594 536.980469 50.558594 537.582031 51.460938 C 538.183594 52.363281 538.742188 53.296875 539.25 54.253906 C 539.761719 55.214844 540.222656 56.195312 540.636719 57.199219 C 541.050781 58.203125 541.417969 59.226562 541.730469 60.265625 C 542.042969 61.304688 542.304688 62.359375 542.515625 63.421875 C 542.726562 64.488281 542.882812 65.5625 542.988281 66.644531 C 543.09375 67.726562 543.144531 68.808594 543.144531 69.894531 C 543.140625 70.980469 543.085938 72.0625 542.980469 73.144531 Z M 542.980469 73.144531 " fill-opacity="1" fill-rule="nonzero"/></g></g></g><g clip-path="url(#7c04a4b6df)"><g clip-path="url(#3c7516b5ee)"><g clip-path="url(#1ed79d7470)"><path fill="#000000" d="M 506.570312 103.972656 C 505.453125 103.859375 504.34375 103.695312 503.242188 103.472656 C 502.140625 103.253906 501.054688 102.976562 499.976562 102.652344 C 498.902344 102.324219 497.847656 101.945312 496.8125 101.511719 C 495.773438 101.082031 494.761719 100.601562 493.769531 100.070312 C 492.78125 99.539062 491.820312 98.960938 490.886719 98.335938 C 489.953125 97.710938 489.054688 97.039062 488.1875 96.324219 C 487.320312 95.613281 486.488281 94.855469 485.695312 94.0625 C 484.902344 93.265625 484.152344 92.433594 483.4375 91.566406 C 482.726562 90.695312 482.0625 89.792969 481.4375 88.859375 C 480.816406 87.921875 480.242188 86.960938 479.710938 85.96875 C 479.183594 84.976562 478.707031 83.960938 478.277344 82.925781 C 477.847656 81.886719 477.472656 80.828125 477.148438 79.753906 C 476.824219 78.679688 476.554688 77.589844 476.335938 76.488281 C 476.117188 75.386719 475.953125 74.277344 475.847656 73.15625 C 475.738281 72.039062 475.683594 70.917969 475.6875 69.796875 C 475.6875 68.671875 475.746094 67.550781 475.855469 66.433594 C 475.96875 65.316406 476.132812 64.207031 476.355469 63.105469 C 476.574219 62.003906 476.851562 60.917969 477.175781 59.84375 C 477.503906 58.769531 477.882812 57.710938 478.316406 56.675781 C 478.746094 55.636719 479.230469 54.625 479.757812 53.636719 C 480.289062 52.644531 480.867188 51.683594 481.492188 50.75 C 482.121094 49.816406 482.789062 48.917969 483.503906 48.050781 C 484.214844 47.183594 484.972656 46.351562 485.765625 45.558594 C 486.5625 44.765625 487.394531 44.015625 488.265625 43.304688 C 489.132812 42.59375 490.035156 41.925781 490.96875 41.300781 C 491.90625 40.679688 492.867188 40.105469 493.859375 39.578125 C 494.851562 39.046875 495.867188 38.570312 496.902344 38.140625 C 497.941406 37.714844 499 37.335938 500.074219 37.011719 C 501.148438 36.6875 502.238281 36.417969 503.339844 36.199219 C 504.441406 35.980469 505.550781 35.820312 506.671875 35.710938 C 507.789062 35.601562 508.910156 35.550781 510.03125 35.550781 C 511.15625 35.550781 512.277344 35.609375 513.394531 35.722656 C 514.511719 35.832031 515.621094 36 516.722656 36.21875 C 517.824219 36.441406 518.910156 36.714844 519.984375 37.042969 C 521.058594 37.371094 522.117188 37.75 523.152344 38.179688 C 524.191406 38.613281 525.203125 39.09375 526.191406 39.625 C 527.183594 40.15625 528.144531 40.734375 529.078125 41.359375 C 530.011719 41.984375 530.910156 42.652344 531.777344 43.367188 C 532.644531 44.082031 533.476562 44.835938 534.269531 45.632812 C 535.0625 46.425781 535.8125 47.257812 536.523438 48.128906 C 537.234375 48.996094 537.902344 49.898438 538.527344 50.835938 C 539.148438 51.769531 539.722656 52.730469 540.25 53.722656 C 540.78125 54.714844 541.257812 55.730469 541.6875 56.769531 C 542.113281 57.808594 542.492188 58.863281 542.816406 59.9375 C 543.140625 61.015625 543.410156 62.101562 543.628906 63.203125 C 543.847656 64.308594 544.007812 65.417969 544.117188 66.535156 C 544.226562 67.652344 544.28125 68.773438 544.277344 69.898438 C 544.277344 71.019531 544.21875 72.140625 544.109375 73.257812 C 543.996094 74.375 543.828125 75.484375 543.605469 76.585938 C 543.382812 77.683594 543.109375 78.773438 542.78125 79.847656 C 542.453125 80.921875 542.070312 81.976562 541.640625 83.011719 C 541.207031 84.046875 540.726562 85.0625 540.195312 86.050781 C 539.664062 87.039062 539.085938 88 538.457031 88.933594 C 537.832031 89.863281 537.164062 90.765625 536.449219 91.632812 C 535.734375 92.496094 534.980469 93.328125 534.1875 94.121094 C 533.390625 94.914062 532.558594 95.664062 531.6875 96.375 C 530.820312 97.085938 529.917969 97.753906 528.984375 98.375 C 528.050781 99 527.085938 99.574219 526.097656 100.101562 C 525.105469 100.628906 524.089844 101.109375 523.054688 101.539062 C 522.015625 101.964844 520.957031 102.34375 519.882812 102.667969 C 518.808594 102.992188 517.722656 103.265625 516.621094 103.484375 C 515.519531 103.703125 514.410156 103.867188 513.292969 103.976562 C 512.175781 104.085938 511.054688 104.140625 509.929688 104.136719 C 508.808594 104.136719 507.6875 104.082031 506.570312 103.972656 Z M 513.167969 37.96875 C 512.125 37.867188 511.078125 37.8125 510.027344 37.8125 C 508.980469 37.808594 507.933594 37.859375 506.890625 37.960938 C 505.84375 38.0625 504.808594 38.214844 503.777344 38.417969 C 502.75 38.621094 501.730469 38.875 500.726562 39.175781 C 499.722656 39.480469 498.734375 39.832031 497.765625 40.230469 C 496.796875 40.632812 495.847656 41.078125 494.921875 41.570312 C 493.996094 42.066406 493.097656 42.601562 492.222656 43.183594 C 491.351562 43.765625 490.507812 44.390625 489.695312 45.054688 C 488.882812 45.71875 488.105469 46.421875 487.363281 47.160156 C 486.621094 47.902344 485.914062 48.675781 485.25 49.488281 C 484.582031 50.296875 483.957031 51.136719 483.371094 52.011719 C 482.789062 52.882812 482.246094 53.78125 481.753906 54.703125 C 481.257812 55.628906 480.804688 56.574219 480.402344 57.542969 C 480 58.511719 479.644531 59.5 479.339844 60.503906 C 479.035156 61.507812 478.777344 62.523438 478.570312 63.550781 C 478.367188 64.578125 478.210938 65.617188 478.105469 66.660156 C 478 67.703125 477.949219 68.75 477.945312 69.800781 C 477.945312 70.847656 477.996094 71.894531 478.097656 72.941406 C 478.199219 73.984375 478.351562 75.019531 478.554688 76.050781 C 478.757812 77.078125 479.011719 78.097656 479.3125 79.101562 C 479.617188 80.105469 479.96875 81.09375 480.367188 82.0625 C 480.769531 83.03125 481.214844 83.980469 481.707031 84.90625 C 482.199219 85.832031 482.738281 86.730469 483.320312 87.605469 C 483.902344 88.476562 484.523438 89.320312 485.1875 90.132812 C 485.851562 90.945312 486.554688 91.722656 487.296875 92.464844 C 488.039062 93.207031 488.8125 93.914062 489.625 94.578125 C 490.433594 95.246094 491.273438 95.871094 492.144531 96.457031 C 493.015625 97.039062 493.914062 97.582031 494.839844 98.078125 C 495.765625 98.574219 496.710938 99.023438 497.679688 99.425781 C 498.648438 99.828125 499.632812 100.183594 500.636719 100.488281 C 501.640625 100.792969 502.65625 101.050781 503.6875 101.257812 C 504.714844 101.460938 505.75 101.617188 506.796875 101.722656 C 507.839844 101.828125 508.886719 101.878906 509.933594 101.882812 C 510.984375 101.882812 512.03125 101.832031 513.074219 101.730469 C 514.121094 101.628906 515.15625 101.476562 516.1875 101.273438 C 517.214844 101.070312 518.230469 100.820312 519.238281 100.515625 C 520.242188 100.210938 521.226562 99.859375 522.199219 99.460938 C 523.167969 99.0625 524.117188 98.613281 525.042969 98.121094 C 525.96875 97.628906 526.867188 97.089844 527.742188 96.507812 C 528.613281 95.925781 529.457031 95.304688 530.269531 94.640625 C 531.082031 93.976562 531.859375 93.273438 532.601562 92.53125 C 533.34375 91.789062 534.046875 91.015625 534.714844 90.207031 C 535.382812 89.394531 536.007812 88.554688 536.59375 87.683594 C 537.175781 86.8125 537.714844 85.914062 538.210938 84.988281 C 538.707031 84.0625 539.15625 83.117188 539.558594 82.148438 C 539.964844 81.179688 540.316406 80.195312 540.625 79.191406 C 540.929688 78.1875 541.1875 77.171875 541.390625 76.140625 C 541.597656 75.113281 541.753906 74.078125 541.859375 73.03125 C 541.960938 71.988281 542.011719 70.941406 542.011719 69.894531 C 542.015625 68.84375 541.960938 67.800781 541.859375 66.753906 C 541.757812 65.710938 541.605469 64.675781 541.402344 63.644531 C 541.199219 62.617188 540.945312 61.601562 540.640625 60.597656 C 540.335938 59.59375 539.984375 58.605469 539.585938 57.636719 C 539.183594 56.667969 538.738281 55.71875 538.242188 54.792969 C 537.75 53.867188 537.210938 52.96875 536.632812 52.097656 C 536.050781 51.222656 535.425781 50.382812 534.761719 49.570312 C 534.097656 48.757812 533.394531 47.980469 532.65625 47.238281 C 531.914062 46.496094 531.140625 45.789062 530.332031 45.125 C 529.519531 44.457031 528.679688 43.832031 527.808594 43.246094 C 526.9375 42.664062 526.042969 42.121094 525.117188 41.625 C 524.195312 41.128906 523.246094 40.679688 522.28125 40.277344 C 521.3125 39.871094 520.324219 39.515625 519.324219 39.210938 C 518.320312 38.902344 517.304688 38.648438 516.277344 38.441406 C 515.246094 38.234375 514.210938 38.074219 513.167969 37.96875 Z M 513.167969 37.96875 " fill-opacity="1" fill-rule="nonzero"/></g></g></g><g clip-path="url(#cb6d1e801a)"><g clip-path="url(#e18589b9dd)"><g clip-path="url(#fd97090393)"><path fill="#000000" d="M 504.363281 59.707031 C 504.324219 60.105469 504.222656 60.488281 504.0625 60.84375 C 503.902344 61.203125 503.691406 61.515625 503.433594 61.773438 C 503.175781 62.035156 502.886719 62.226562 502.574219 62.351562 C 502.257812 62.476562 501.9375 62.519531 501.613281 62.488281 C 501.289062 62.457031 500.984375 62.347656 500.699219 62.164062 C 500.414062 61.980469 500.171875 61.734375 499.96875 61.429688 C 499.769531 61.121094 499.625 60.777344 499.535156 60.394531 C 499.449219 60.011719 499.425781 59.617188 499.464844 59.214844 C 499.507812 58.816406 499.605469 58.433594 499.769531 58.074219 C 499.929688 57.71875 500.140625 57.40625 500.398438 57.148438 C 500.65625 56.886719 500.941406 56.695312 501.257812 56.570312 C 501.574219 56.445312 501.894531 56.402344 502.21875 56.433594 C 502.542969 56.464844 502.847656 56.574219 503.132812 56.757812 C 503.417969 56.941406 503.660156 57.1875 503.859375 57.492188 C 504.0625 57.800781 504.207031 58.144531 504.292969 58.527344 C 504.378906 58.910156 504.402344 59.304688 504.363281 59.707031 Z M 504.363281 59.707031 " fill-opacity="1" fill-rule="nonzero"/></g></g></g><g clip-path="url(#a41e9c4bc6)"><g clip-path="url(#6b5d25896c)"><g clip-path="url(#d0148b468c)"><path fill="#000000" d="M 520.199219 59.390625 C 520.160156 59.792969 520.058594 60.171875 519.898438 60.53125 C 519.738281 60.886719 519.527344 61.199219 519.269531 61.457031 C 519.011719 61.71875 518.726562 61.914062 518.410156 62.035156 C 518.09375 62.160156 517.773438 62.203125 517.449219 62.171875 C 517.125 62.140625 516.820312 62.03125 516.535156 61.847656 C 516.25 61.664062 516.007812 61.417969 515.804688 61.113281 C 515.605469 60.804688 515.460938 60.460938 515.375 60.078125 C 515.285156 59.695312 515.261719 59.300781 515.300781 58.898438 C 515.34375 58.5 515.445312 58.117188 515.605469 57.761719 C 515.765625 57.402344 515.976562 57.09375 516.234375 56.832031 C 516.492188 56.570312 516.777344 56.378906 517.09375 56.253906 C 517.410156 56.128906 517.730469 56.085938 518.054688 56.117188 C 518.378906 56.148438 518.683594 56.257812 518.96875 56.441406 C 519.253906 56.625 519.496094 56.871094 519.699219 57.175781 C 519.898438 57.484375 520.042969 57.828125 520.128906 58.210938 C 520.21875 58.597656 520.242188 58.988281 520.199219 59.390625 Z M 520.199219 59.390625 " fill-opacity="1" fill-rule="nonzero"/></g></g></g><g clip-path="url(#5f0c329e0c)"><g clip-path="url(#fbf9a17995)"><g clip-path="url(#cf31680464)"><path fill="#000000" d="M 509.511719 90.152344 C 501.585938 89.359375 495.308594 82.890625 492.589844 76.523438 C 492.53125 76.382812 492.5 76.238281 492.5 76.089844 C 492.5 75.941406 492.523438 75.796875 492.582031 75.65625 C 492.636719 75.515625 492.71875 75.394531 492.820312 75.285156 C 492.925781 75.179688 493.046875 75.097656 493.1875 75.039062 C 493.324219 74.980469 493.46875 74.949219 493.617188 74.945312 C 493.765625 74.945312 493.910156 74.972656 494.050781 75.027344 C 494.191406 75.082031 494.3125 75.164062 494.421875 75.269531 C 494.527344 75.375 494.609375 75.496094 494.667969 75.632812 C 497.449219 82.117188 504.226562 88.722656 512.539062 87.902344 C 521.71875 86.996094 525.675781 75.960938 526.664062 72.597656 C 526.707031 72.453125 526.773438 72.324219 526.871094 72.207031 C 526.964844 72.089844 527.078125 71.996094 527.207031 71.925781 C 527.339844 71.851562 527.480469 71.808594 527.628906 71.792969 C 527.777344 71.777344 527.925781 71.789062 528.070312 71.832031 C 528.210938 71.875 528.34375 71.945312 528.460938 72.039062 C 528.574219 72.132812 528.671875 72.246094 528.742188 72.375 C 528.8125 72.507812 528.859375 72.648438 528.875 72.796875 C 528.890625 72.945312 528.875 73.09375 528.832031 73.238281 C 527.742188 76.941406 523.351562 89.109375 512.757812 90.15625 C 511.675781 90.261719 510.59375 90.261719 509.511719 90.152344 Z M 509.511719 90.152344 " fill-opacity="1" fill-rule="nonzero"/></g></g></g><g clip-path="url(#d454c8c5c2)"><path fill="#000000" d="M 840.582031 68.433594 C 840.582031 61.5 844.378906 54.992188 851.296875 50.121094 C 858.152344 45.273438 867.269531 42.621094 876.953125 42.621094 C 886.632812 42.621094 895.75 45.292969 902.609375 50.121094 C 909.523438 54.992188 913.324219 61.5 913.324219 68.433594 C 913.324219 75.371094 909.523438 81.875 902.609375 86.746094 C 895.75 91.597656 886.632812 94.246094 876.953125 94.246094 C 875.9375 94.246094 874.925781 94.226562 873.953125 94.148438 C 872.316406 96.097656 870.523438 97.949219 868.632812 99.640625 C 865.320312 102.621094 861.640625 105.214844 857.6875 107.316406 C 857.609375 107.355469 857.53125 107.375 857.453125 107.375 C 857.316406 107.375 857.199219 107.316406 857.101562 107.21875 C 856.945312 107.0625 856.925781 106.8125 857.042969 106.636719 C 858.894531 103.636719 860.355469 100.402344 861.367188 97.050781 C 861.855469 95.433594 862.265625 93.777344 862.554688 92.121094 C 849.191406 88.089844 840.582031 78.796875 840.582031 68.433594 Z M 863.257812 91.363281 C 863.492188 91.441406 863.648438 91.675781 863.609375 91.910156 C 863.296875 93.757812 862.867188 95.589844 862.320312 97.382812 C 861.445312 100.246094 860.257812 103.011719 858.796875 105.640625 C 862.089844 103.734375 865.1875 101.492188 867.992188 98.960938 C 869.898438 97.246094 871.710938 95.355469 873.367188 93.371094 C 873.464844 93.253906 873.601562 93.195312 873.738281 93.195312 C 873.757812 93.195312 873.757812 93.195312 873.777344 93.195312 C 874.808594 93.253906 875.878906 93.292969 876.972656 93.292969 C 896.492188 93.292969 912.367188 82.148438 912.367188 68.453125 C 912.367188 54.757812 896.472656 43.597656 876.953125 43.597656 C 857.433594 43.597656 841.554688 54.738281 841.554688 68.433594 C 841.554688 78.464844 850.070312 87.464844 863.257812 91.363281 Z M 863.257812 91.363281 " fill-opacity="1" fill-rule="nonzero"/></g><path fill="#ff5400" d="M 863.589844 91.910156 C 863.277344 93.757812 862.847656 95.589844 862.300781 97.382812 C 861.425781 100.246094 860.238281 103.011719 858.777344 105.640625 C 862.070312 103.734375 865.167969 101.492188 867.972656 98.960938 C 869.878906 97.246094 871.691406 95.355469 873.347656 93.371094 C 873.445312 93.253906 873.582031 93.195312 873.71875 93.195312 C 873.738281 93.195312 873.738281 93.195312 873.757812 93.195312 C 874.789062 93.253906 875.859375 93.292969 876.953125 93.292969 C 896.472656 93.292969 912.347656 82.148438 912.347656 68.453125 C 912.347656 54.757812 896.472656 43.597656 876.953125 43.597656 C 857.433594 43.597656 841.554688 54.738281 841.554688 68.433594 C 841.554688 78.464844 850.070312 87.464844 863.257812 91.34375 C 863.492188 91.421875 863.628906 91.65625 863.589844 91.910156 Z M 863.589844 91.910156 " fill-opacity="1" fill-rule="nonzero"/></svg>